<mxfile host="Electron" agent="Mozilla/5.0 (Windows NT 10.0; Win64; x64) AppleWebKit/537.36 (KHTML, like Gecko) draw.io/26.0.16 Chrome/132.0.6834.196 Electron/34.2.0 Safari/537.36" version="26.0.16">
  <diagram id="C5RBs43oDa-KdzZeNtuy" name="Page-1">
    <mxGraphModel dx="2231" dy="1299" grid="1" gridSize="10" guides="1" tooltips="1" connect="1" arrows="1" fold="1" page="1" pageScale="1" pageWidth="827" pageHeight="1169" math="0" shadow="0">
      <root>
        <mxCell id="WIyWlLk6GJQsqaUBKTNV-0" />
        <mxCell id="WIyWlLk6GJQsqaUBKTNV-1" parent="WIyWlLk6GJQsqaUBKTNV-0" />
        <mxCell id="Gk-2KtXFa9rM67NqQZuM-4" style="edgeStyle=orthogonalEdgeStyle;rounded=0;orthogonalLoop=1;jettySize=auto;html=1;entryX=0.5;entryY=0;entryDx=0;entryDy=0;" edge="1" parent="WIyWlLk6GJQsqaUBKTNV-1" source="WIyWlLk6GJQsqaUBKTNV-3" target="Gk-2KtXFa9rM67NqQZuM-3">
          <mxGeometry relative="1" as="geometry">
            <Array as="points">
              <mxPoint x="240" y="150" />
              <mxPoint x="240" y="150" />
            </Array>
          </mxGeometry>
        </mxCell>
        <mxCell id="WIyWlLk6GJQsqaUBKTNV-3" value="&lt;b&gt;&lt;i&gt;&lt;font style=&quot;font-size: 14px;&quot;&gt;Preparacion de datos&lt;/font&gt;&lt;/i&gt;&lt;/b&gt;" style="rounded=1;whiteSpace=wrap;html=1;fontSize=12;glass=0;strokeWidth=1;shadow=0;fillColor=light-dark(#A9C4EB,var(--ge-dark-color, #121212));" parent="WIyWlLk6GJQsqaUBKTNV-1" vertex="1">
          <mxGeometry x="170" y="70" width="140" height="60" as="geometry" />
        </mxCell>
        <mxCell id="Gk-2KtXFa9rM67NqQZuM-2" value="- Se utilizan archivos JSON de la carpeta ticks_filtrados/ como datos de entrada.&lt;div&gt;&lt;br&gt;&lt;/div&gt;&lt;div&gt;&lt;div&gt;- Estos datos representan los &quot;ticks&quot; o estados del entorno minero.&lt;/div&gt;&lt;/div&gt;&lt;div&gt;&lt;br&gt;&lt;/div&gt;" style="rounded=1;whiteSpace=wrap;html=1;shadow=1;dashed=1;dashPattern=8 8;" vertex="1" parent="WIyWlLk6GJQsqaUBKTNV-1">
          <mxGeometry x="380" y="50" width="190" height="120" as="geometry" />
        </mxCell>
        <mxCell id="Gk-2KtXFa9rM67NqQZuM-3" value="&lt;b&gt;&lt;i&gt;&lt;font style=&quot;font-size: 14px;&quot;&gt;Construcción de estados&lt;/font&gt;&lt;/i&gt;&lt;/b&gt;" style="rounded=1;whiteSpace=wrap;html=1;fontSize=12;glass=0;strokeWidth=1;shadow=0;fillColor=light-dark(#99FFFF,var(--ge-dark-color, #121212));" vertex="1" parent="WIyWlLk6GJQsqaUBKTNV-1">
          <mxGeometry x="170" y="230" width="140" height="50" as="geometry" />
        </mxCell>
        <mxCell id="Gk-2KtXFa9rM67NqQZuM-5" value="&lt;div&gt;El módulo state_builder.py toma los datos de ticks y los transforma en estados que el agente puede entender.&lt;/div&gt;" style="rounded=1;whiteSpace=wrap;html=1;shadow=1;glass=0;dashed=1;dashPattern=8 8;" vertex="1" parent="WIyWlLk6GJQsqaUBKTNV-1">
          <mxGeometry x="390" y="245" width="190" height="120" as="geometry" />
        </mxCell>
        <mxCell id="Gk-2KtXFa9rM67NqQZuM-6" value="" style="shape=curlyBracket;whiteSpace=wrap;html=1;rounded=1;labelPosition=left;verticalLabelPosition=middle;align=right;verticalAlign=middle;" vertex="1" parent="WIyWlLk6GJQsqaUBKTNV-1">
          <mxGeometry x="350" y="35" width="20" height="150" as="geometry" />
        </mxCell>
        <mxCell id="Gk-2KtXFa9rM67NqQZuM-7" value="" style="shape=curlyBracket;whiteSpace=wrap;html=1;rounded=1;labelPosition=left;verticalLabelPosition=middle;align=right;verticalAlign=middle;" vertex="1" parent="WIyWlLk6GJQsqaUBKTNV-1">
          <mxGeometry x="350" y="230" width="20" height="150" as="geometry" />
        </mxCell>
        <mxCell id="Gk-2KtXFa9rM67NqQZuM-8" value="&lt;div&gt;&lt;b&gt;&lt;i&gt;&lt;font style=&quot;font-size: 14px;&quot;&gt;Inicialización del agente&lt;/font&gt;&lt;/i&gt;&lt;/b&gt;&lt;/div&gt;" style="rounded=1;whiteSpace=wrap;html=1;fontSize=12;glass=0;strokeWidth=1;shadow=0;fillColor=light-dark(#D5E8D4,var(--ge-dark-color, #121212));" vertex="1" parent="WIyWlLk6GJQsqaUBKTNV-1">
          <mxGeometry x="170" y="440" width="150" height="50" as="geometry" />
        </mxCell>
        <mxCell id="Gk-2KtXFa9rM67NqQZuM-12" value="" style="edgeStyle=orthogonalEdgeStyle;rounded=0;orthogonalLoop=1;jettySize=auto;html=1;" edge="1" parent="WIyWlLk6GJQsqaUBKTNV-1" source="Gk-2KtXFa9rM67NqQZuM-9" target="Gk-2KtXFa9rM67NqQZuM-11">
          <mxGeometry relative="1" as="geometry" />
        </mxCell>
        <mxCell id="Gk-2KtXFa9rM67NqQZuM-9" value="&lt;div&gt;&lt;font style=&quot;font-size: 13px;&quot;&gt;El agente se configura usando agent/q_learning_agent.py, con parámetros de agent/MINE-hudbay-ALGO-2025-08-15.json.&lt;/font&gt;&lt;/div&gt;&lt;div&gt;&lt;br&gt;&lt;/div&gt;" style="rounded=0;whiteSpace=wrap;html=1;dashed=1;dashPattern=8 8;" vertex="1" parent="WIyWlLk6GJQsqaUBKTNV-1">
          <mxGeometry x="390" y="410" width="190" height="90" as="geometry" />
        </mxCell>
        <mxCell id="Gk-2KtXFa9rM67NqQZuM-10" value="" style="shape=curlyBracket;whiteSpace=wrap;html=1;rounded=1;labelPosition=left;verticalLabelPosition=middle;align=right;verticalAlign=middle;" vertex="1" parent="WIyWlLk6GJQsqaUBKTNV-1">
          <mxGeometry x="350" y="410" width="20" height="120" as="geometry" />
        </mxCell>
        <mxCell id="Gk-2KtXFa9rM67NqQZuM-13" style="edgeStyle=orthogonalEdgeStyle;rounded=0;orthogonalLoop=1;jettySize=auto;html=1;entryX=0.5;entryY=1;entryDx=0;entryDy=0;" edge="1" parent="WIyWlLk6GJQsqaUBKTNV-1" source="Gk-2KtXFa9rM67NqQZuM-11" target="Gk-2KtXFa9rM67NqQZuM-9">
          <mxGeometry relative="1" as="geometry">
            <Array as="points">
              <mxPoint x="710" y="520" />
              <mxPoint x="485" y="520" />
            </Array>
          </mxGeometry>
        </mxCell>
        <mxCell id="Gk-2KtXFa9rM67NqQZuM-11" value="&lt;div&gt;&lt;div&gt;&lt;font style=&quot;font-size: 13px;&quot;&gt;Se inicializan las tablas Q y otros parámetros de aprendizaje.&lt;/font&gt;&lt;/div&gt;&lt;/div&gt;&lt;div&gt;&lt;br&gt;&lt;/div&gt;" style="rounded=0;whiteSpace=wrap;html=1;dashed=1;dashPattern=8 8;" vertex="1" parent="WIyWlLk6GJQsqaUBKTNV-1">
          <mxGeometry x="620" y="410" width="190" height="90" as="geometry" />
        </mxCell>
        <mxCell id="Gk-2KtXFa9rM67NqQZuM-14" style="edgeStyle=orthogonalEdgeStyle;rounded=0;orthogonalLoop=1;jettySize=auto;html=1;entryX=0.427;entryY=0.071;entryDx=0;entryDy=0;entryPerimeter=0;" edge="1" parent="WIyWlLk6GJQsqaUBKTNV-1" source="Gk-2KtXFa9rM67NqQZuM-3" target="Gk-2KtXFa9rM67NqQZuM-8">
          <mxGeometry relative="1" as="geometry">
            <Array as="points">
              <mxPoint x="234" y="320" />
              <mxPoint x="234" y="320" />
            </Array>
          </mxGeometry>
        </mxCell>
        <mxCell id="Gk-2KtXFa9rM67NqQZuM-28" style="edgeStyle=orthogonalEdgeStyle;rounded=0;orthogonalLoop=1;jettySize=auto;html=1;entryX=0.5;entryY=0;entryDx=0;entryDy=0;" edge="1" parent="WIyWlLk6GJQsqaUBKTNV-1" source="Gk-2KtXFa9rM67NqQZuM-15" target="Gk-2KtXFa9rM67NqQZuM-19">
          <mxGeometry relative="1" as="geometry" />
        </mxCell>
        <mxCell id="Gk-2KtXFa9rM67NqQZuM-15" value="&lt;font style=&quot;font-size: 14px;&quot;&gt;&lt;b&gt;&lt;i&gt;Definicion de Recompensas&lt;/i&gt;&lt;/b&gt;&lt;/font&gt;" style="rounded=1;whiteSpace=wrap;html=1;fontSize=12;glass=0;strokeWidth=1;shadow=0;fillColor=light-dark(#FFF2CC,var(--ge-dark-color, #121212));" vertex="1" parent="WIyWlLk6GJQsqaUBKTNV-1">
          <mxGeometry x="170" y="595" width="150" height="60" as="geometry" />
        </mxCell>
        <mxCell id="Gk-2KtXFa9rM67NqQZuM-16" value="&lt;div&gt;rewards.py define cómo se calculan las recompensas según las acciones y estados.&lt;/div&gt;" style="rounded=1;whiteSpace=wrap;html=1;shadow=1;dashed=1;dashPattern=8 8;" vertex="1" parent="WIyWlLk6GJQsqaUBKTNV-1">
          <mxGeometry x="380" y="575" width="190" height="120" as="geometry" />
        </mxCell>
        <mxCell id="Gk-2KtXFa9rM67NqQZuM-17" value="" style="shape=curlyBracket;whiteSpace=wrap;html=1;rounded=1;labelPosition=left;verticalLabelPosition=middle;align=right;verticalAlign=middle;" vertex="1" parent="WIyWlLk6GJQsqaUBKTNV-1">
          <mxGeometry x="350" y="560" width="20" height="150" as="geometry" />
        </mxCell>
        <mxCell id="Gk-2KtXFa9rM67NqQZuM-18" style="edgeStyle=orthogonalEdgeStyle;rounded=0;orthogonalLoop=1;jettySize=auto;html=1;" edge="1" parent="WIyWlLk6GJQsqaUBKTNV-1" source="Gk-2KtXFa9rM67NqQZuM-8">
          <mxGeometry relative="1" as="geometry">
            <mxPoint x="250" y="590" as="targetPoint" />
            <Array as="points">
              <mxPoint x="245" y="590" />
            </Array>
          </mxGeometry>
        </mxCell>
        <mxCell id="Gk-2KtXFa9rM67NqQZuM-19" value="&lt;div&gt;&lt;b&gt;&lt;i&gt;&lt;font style=&quot;font-size: 14px;&quot;&gt;Entrenamiento del agente&lt;/font&gt;&lt;/i&gt;&lt;/b&gt;&lt;/div&gt;" style="rounded=1;whiteSpace=wrap;html=1;fontSize=12;glass=0;strokeWidth=1;shadow=0;fillColor=light-dark(#FFB570,var(--ge-dark-color, #121212));" vertex="1" parent="WIyWlLk6GJQsqaUBKTNV-1">
          <mxGeometry x="170" y="775" width="150" height="60" as="geometry" />
        </mxCell>
        <mxCell id="Gk-2KtXFa9rM67NqQZuM-20" value="&lt;div&gt;training_agent.py ejecuta el ciclo de entrenamiento: el agente interactúa con el entorno, elige acciones, recibe recompensas y actualiza la tabla Q.&lt;/div&gt;&lt;div&gt;&lt;br&gt;&lt;/div&gt;" style="rounded=1;whiteSpace=wrap;html=1;dashed=1;dashPattern=8 8;shadow=1;" vertex="1" parent="WIyWlLk6GJQsqaUBKTNV-1">
          <mxGeometry x="380" y="755" width="190" height="120" as="geometry" />
        </mxCell>
        <mxCell id="Gk-2KtXFa9rM67NqQZuM-21" value="" style="shape=curlyBracket;whiteSpace=wrap;html=1;rounded=1;labelPosition=left;verticalLabelPosition=middle;align=right;verticalAlign=middle;" vertex="1" parent="WIyWlLk6GJQsqaUBKTNV-1">
          <mxGeometry x="350" y="740" width="20" height="150" as="geometry" />
        </mxCell>
        <mxCell id="Gk-2KtXFa9rM67NqQZuM-22" value="&lt;div&gt;&lt;b&gt;&lt;i&gt;&lt;font style=&quot;font-size: 14px;&quot;&gt;Ejecución en tiempo real o pruebas&lt;/font&gt;&lt;/i&gt;&lt;/b&gt;&lt;/div&gt;" style="rounded=1;whiteSpace=wrap;html=1;fontSize=12;glass=0;strokeWidth=1;shadow=0;fillColor=light-dark(#66FFB3,var(--ge-dark-color, #121212));" vertex="1" parent="WIyWlLk6GJQsqaUBKTNV-1">
          <mxGeometry x="175" y="975" width="135" height="60" as="geometry" />
        </mxCell>
        <mxCell id="Gk-2KtXFa9rM67NqQZuM-23" value="&lt;div&gt;&lt;div&gt;Ejecucion_Agente_RealTime.py permite ejecutar el agente en un entorno simulado o real, usando los modelos entrenados.&lt;/div&gt;&lt;div&gt;Se generan logs de decisiones y resultados en logs/decisiones_guardadas/ y logs/logs_ticks/.&lt;/div&gt;&lt;/div&gt;" style="rounded=1;whiteSpace=wrap;html=1;shadow=1;dashed=1;dashPattern=8 8;" vertex="1" parent="WIyWlLk6GJQsqaUBKTNV-1">
          <mxGeometry x="390" y="942.5" width="190" height="135" as="geometry" />
        </mxCell>
        <mxCell id="Gk-2KtXFa9rM67NqQZuM-24" value="" style="shape=curlyBracket;whiteSpace=wrap;html=1;rounded=1;labelPosition=left;verticalLabelPosition=middle;align=right;verticalAlign=middle;" vertex="1" parent="WIyWlLk6GJQsqaUBKTNV-1">
          <mxGeometry x="360" y="930" width="20" height="160" as="geometry" />
        </mxCell>
        <mxCell id="Gk-2KtXFa9rM67NqQZuM-25" value="1" style="ellipse;whiteSpace=wrap;html=1;aspect=fixed;strokeColor=light-dark(#0000FF,#FFFFFF);" vertex="1" parent="WIyWlLk6GJQsqaUBKTNV-1">
          <mxGeometry x="250" y="150" width="50" height="50" as="geometry" />
        </mxCell>
        <mxCell id="Gk-2KtXFa9rM67NqQZuM-26" value="2" style="ellipse;whiteSpace=wrap;html=1;aspect=fixed;strokeColor=light-dark(#0000FF,#FFFFFF);" vertex="1" parent="WIyWlLk6GJQsqaUBKTNV-1">
          <mxGeometry x="250" y="315" width="50" height="50" as="geometry" />
        </mxCell>
        <mxCell id="Gk-2KtXFa9rM67NqQZuM-27" value="3" style="ellipse;whiteSpace=wrap;html=1;aspect=fixed;strokeColor=light-dark(#3333FF,#FFFFFF);" vertex="1" parent="WIyWlLk6GJQsqaUBKTNV-1">
          <mxGeometry x="260" y="510" width="50" height="50" as="geometry" />
        </mxCell>
        <mxCell id="Gk-2KtXFa9rM67NqQZuM-29" value="4" style="ellipse;whiteSpace=wrap;html=1;aspect=fixed;strokeColor=light-dark(#3333FF,#FFFFFF);" vertex="1" parent="WIyWlLk6GJQsqaUBKTNV-1">
          <mxGeometry x="260" y="690" width="50" height="50" as="geometry" />
        </mxCell>
        <mxCell id="Gk-2KtXFa9rM67NqQZuM-30" style="edgeStyle=orthogonalEdgeStyle;rounded=0;orthogonalLoop=1;jettySize=auto;html=1;entryX=0.42;entryY=0;entryDx=0;entryDy=0;entryPerimeter=0;" edge="1" parent="WIyWlLk6GJQsqaUBKTNV-1" source="Gk-2KtXFa9rM67NqQZuM-19" target="Gk-2KtXFa9rM67NqQZuM-22">
          <mxGeometry relative="1" as="geometry">
            <Array as="points">
              <mxPoint x="240" y="900" />
              <mxPoint x="232" y="900" />
            </Array>
          </mxGeometry>
        </mxCell>
        <mxCell id="Gk-2KtXFa9rM67NqQZuM-31" value="5" style="ellipse;whiteSpace=wrap;html=1;aspect=fixed;strokeColor=light-dark(#0000FF,#FFFFFF);" vertex="1" parent="WIyWlLk6GJQsqaUBKTNV-1">
          <mxGeometry x="260" y="880" width="50" height="50" as="geometry" />
        </mxCell>
      </root>
    </mxGraphModel>
  </diagram>
</mxfile>
